<svg width="60" height="60" viewBox="0 0 60 60" fill="none" xmlns="http://www.w3.org/2000/svg">
<circle cx="30" cy="30" r="28" fill="white" stroke="#F0F0F0" stroke-width="4"/>
<circle cx="30" cy="30" r="29.5" stroke="#757C84" stroke-opacity="0.2"/>
<path d="M40.2271 22.8181C38.5101 22.8181 37.1134 21.4213 37.1134 19.7044V19H22.8865V19.7044C22.8865 21.4214 21.4896 22.8181 19.7728 22.8181H19.0684V27.5027C19.0684 30.869 20.0824 34.1105 22.001 36.8766C23.9196 39.6426 26.6002 41.7282 29.7531 42.9077L29.9999 43L30.2468 42.9077C33.3997 41.7282 36.0804 39.6427 37.9989 36.8766C39.9175 34.1105 40.9315 30.869 40.9315 27.5027V22.8181H40.2271ZM39.5227 27.5027H39.5226C39.5226 30.5807 38.5954 33.5444 36.8412 36.0736C35.1373 38.5302 32.7758 40.3998 29.9999 41.4932C27.224 40.3997 24.8625 38.5302 23.1586 36.0736C21.4044 33.5445 20.4772 30.5807 20.4772 27.5027V24.1722C22.408 23.869 23.9373 22.3397 24.2406 20.4089H35.7593C36.0626 22.3397 37.5919 23.869 39.5227 24.1722V27.5027Z" fill="#757C84"/>
<path d="M33.1431 25.6182L28.4801 30.2812L26.8563 28.6574L23.8677 31.6461L28.4801 36.2586L36.1318 28.6069L33.1431 25.6182ZM25.8601 31.6462L26.8564 30.65L28.4802 32.2738L33.1432 27.6107L34.1394 28.607L28.4802 34.2662L25.8601 31.6462Z" fill="#757C84"/>
</svg>
