<svg width="60" height="60" viewBox="0 0 60 60" fill="none" xmlns="http://www.w3.org/2000/svg">
<circle cx="30" cy="30" r="28" fill="white" stroke="#F0F0F0" stroke-width="4"/>
<circle cx="30" cy="30" r="29.5" stroke="#757C84" stroke-opacity="0.2"/>
<path d="M39.5161 20.6034C39.467 20.6014 39.4179 20.6011 39.3688 20.6024H37.5182V19.0121C37.5183 18.3759 36.911 18 36.2749 18H34.5689C33.9327 18 33.4701 18.3759 33.4701 19.0121V20.6024H26.5303V19.0121C26.5303 18.3759 26.0677 18 25.4315 18H23.7255C23.0894 18 22.4821 18.3759 22.4821 19.0121V20.6024H20.6315C19.4502 20.5695 18.4659 21.5004 18.433 22.6817C18.4316 22.7307 18.4319 22.7799 18.4339 22.8289V39.5421C18.4339 40.8144 19.3592 41.9999 20.6315 41.9999H39.3689C40.6412 41.9999 41.5665 40.8144 41.5665 39.5421V22.8289C41.6148 21.6482 40.6968 20.6518 39.5161 20.6034ZM34.5689 19.1566H36.3616V22.3373H34.5689V19.1566ZM23.7255 19.1566H25.3737V22.3373H23.7255V19.1566ZM40.4098 39.5421C40.4098 40.1783 40.005 40.8433 39.3689 40.8433H20.6315C19.9954 40.8433 19.5906 40.1783 19.5906 39.5421V27.253H40.4098V39.5421ZM40.4098 22.8289V26.0964H19.5905V22.8289C19.5416 22.2882 19.9402 21.8101 20.481 21.7611C20.531 21.7566 20.5813 21.7559 20.6315 21.7591H22.4821V22.3952C22.4821 23.0314 23.0893 23.494 23.7255 23.494H25.4315C26.0222 23.5102 26.5141 23.0445 26.5303 22.4538C26.5309 22.4343 26.5309 22.4148 26.5303 22.3952V21.759H33.4701V22.3952C33.4539 22.9858 33.9196 23.4777 34.5103 23.494C34.5298 23.4945 34.5493 23.4945 34.5689 23.494H36.2749C36.9111 23.494 37.5183 23.0313 37.5183 22.3952V21.759H39.3689C39.9108 21.7249 40.3777 22.1365 40.4119 22.6784C40.415 22.7285 40.4144 22.7789 40.4098 22.8289Z" fill="#757C84"/>
<path d="M26.7908 35.1469L26.2703 38.0385C26.2497 38.1625 26.2701 38.2899 26.3284 38.4013C26.4764 38.6843 26.8259 38.7938 27.1089 38.6457L29.7112 37.2867L32.3136 38.6457L32.5739 38.7035C32.6993 38.7058 32.8218 38.6649 32.9208 38.5879C33.0937 38.4616 33.1826 38.2503 33.1522 38.0384L32.6317 35.1469L34.7426 33.1228C34.8936 32.9596 34.9484 32.7294 34.8871 32.5156C34.8092 32.318 34.6338 32.1755 34.4245 32.1397L31.5329 31.7059L30.2317 29.0746C30.175 28.9575 30.0805 28.8629 29.9633 28.8062C29.6759 28.667 29.33 28.7872 29.1908 29.0746L27.8896 31.7059L24.998 32.1397C24.7887 32.1754 24.6132 32.318 24.5354 32.5156C24.4741 32.7294 24.5289 32.9596 24.6799 33.1228L26.7908 35.1469ZM28.3812 32.8048C28.5628 32.7776 28.7166 32.6567 28.786 32.4867L29.7112 30.6361L30.6365 32.4867C30.7059 32.6567 30.8597 32.7776 31.0413 32.8048L33.0943 33.0939L31.6196 34.5108C31.4823 34.6468 31.4178 34.84 31.4461 35.0313L31.7931 37.0843L29.9714 36.1012L29.7112 36.0433L29.451 36.1012L27.6293 37.0843L27.9762 35.0313C28.0046 34.84 27.9401 34.6468 27.8027 34.5108L26.328 33.0939L28.3812 32.8048Z" fill="#757C84"/>
</svg>
