<svg width="60" height="60" viewBox="0 0 60 60" fill="none" xmlns="http://www.w3.org/2000/svg">
<circle cx="30" cy="30" r="28" fill="#20A95A" stroke="white" stroke-width="4"/>
<path fill-rule="evenodd" clip-rule="evenodd" d="M25.5 40.75C25.5 40.3358 25.8358 40 26.25 40H33.75C34.1642 40 34.5 40.3358 34.5 40.75C34.5 41.1642 34.1642 41.5 33.75 41.5H26.25C25.8358 41.5 25.5 41.1642 25.5 40.75Z" fill="white"/>
<path fill-rule="evenodd" clip-rule="evenodd" d="M30 34C30.4142 34 30.75 34.3358 30.75 34.75V40.75C30.75 41.1642 30.4142 41.5 30 41.5C29.5858 41.5 29.25 41.1642 29.25 40.75V34.75C29.25 34.3358 29.5858 34 30 34Z" fill="white"/>
<path fill-rule="evenodd" clip-rule="evenodd" d="M35.2443 20.5C35.6421 20.5 36.0236 20.658 36.305 20.9393C36.5862 21.2206 36.7442 21.602 36.7443 21.9997C36.7443 21.9998 36.7443 21.9999 36.7443 22H35.9943L36.7443 21.9988C36.7443 21.9991 36.7443 21.9994 36.7443 21.9997C36.7462 23.1904 36.7499 27.1264 36.7499 29.5C36.7499 31.3412 35.5695 32.8489 34.2425 33.853C32.9172 34.8559 31.2616 35.5 29.998 35.5C28.7344 35.5 27.0793 34.8559 25.7544 33.8529C24.4278 32.8487 23.248 31.341 23.248 29.5C23.248 28.7819 23.2496 27.2672 23.2511 25.7535L23.2511 25.7528C23.2526 24.2388 23.2541 22.726 23.2541 22.0098L23.2541 22.0075C23.2554 21.6105 23.414 21.2302 23.6951 20.9499C23.9762 20.6697 24.3568 20.5123 24.7536 20.5122L24.7533 20.5122L24.7541 21.2622L24.7541 20.5122L35.2443 20.5ZM35.2443 22L24.7541 22.0122C24.7541 22.73 24.7526 24.2414 24.7511 25.7527L24.7511 25.755C24.7496 27.2692 24.748 28.7828 24.748 29.5C24.748 30.6721 25.5136 31.7894 26.6597 32.6569C27.8074 33.5257 29.1523 34 29.998 34C30.8438 34 32.1892 33.5257 33.3374 32.6568C34.484 31.7892 35.2499 30.6719 35.2499 29.5C35.2499 27.1267 35.2462 23.19 35.2443 22.0012V22Z" fill="white"/>
<path fill-rule="evenodd" clip-rule="evenodd" d="M19.5 23.5C19.5 23.0858 19.8358 22.75 20.25 22.75H24C24.4142 22.75 24.75 23.0858 24.75 23.5C24.75 23.9142 24.4142 24.25 24 24.25H21C21 25.4041 21.3536 26.5691 21.9308 27.427C22.5107 28.289 23.2442 28.75 24 28.75C24.4142 28.75 24.75 29.0858 24.75 29.5C24.75 29.9142 24.4142 30.25 24 30.25C22.5785 30.25 21.4369 29.3802 20.6862 28.2643C19.9327 27.1443 19.5 25.6843 19.5 24.25V23.5Z" fill="white"/>
<path fill-rule="evenodd" clip-rule="evenodd" d="M35.25 23.5C35.25 23.0858 35.5858 22.75 36 22.75H39.75C40.1642 22.75 40.5 23.0858 40.5 23.5V24.25C40.5 25.6843 40.0673 27.1443 39.3138 28.2643C38.5631 29.3802 37.4215 30.25 36 30.25C35.5858 30.25 35.25 29.9142 35.25 29.5C35.25 29.0858 35.5858 28.75 36 28.75C36.7558 28.75 37.4893 28.289 38.0692 27.427C38.6464 26.5691 39 25.4041 39 24.25H36C35.5858 24.25 35.25 23.9142 35.25 23.5Z" fill="white"/>
<circle cx="30" cy="30" r="29.5" stroke="#20A95A"/>
<path opacity="0.2" d="M11.2669 12.1493C1.17851 22.1727 1.12582 38.4766 11.1493 48.5651L47.6828 12.2669C37.6593 2.17851 21.3554 2.12582 11.2669 12.1493Z" fill="white"/>
</svg>
